<?xml version="1.0" encoding="UTF-8" standalone="no"?>
<svg
   xmlns:dc="http://purl.org/dc/elements/1.1/"
   xmlns:cc="http://creativecommons.org/ns#"
   xmlns:rdf="http://www.w3.org/1999/02/22-rdf-syntax-ns#"
   xmlns:svg="http://www.w3.org/2000/svg"
   xmlns="http://www.w3.org/2000/svg"
   id="svg26"
   xml:space="preserve"
   viewBox="0 0 1024 768"
   y="0px"
   x="0px"
   version="1.1"><metadata
     id="metadata32"><rdf:RDF><cc:Work
         rdf:about=""><dc:format>image/svg+xml</dc:format><dc:type
           rdf:resource="http://purl.org/dc/dcmitype/StillImage" /></cc:Work></rdf:RDF></metadata><defs
     id="defs30" /><g
     style="fill:#04d9ff;stroke-width:0;stroke-miterlimit:2"
     transform="translate(-5e-6,5e-6)"
     stroke-miterlimit="2"
     id="logo-group"><path
       d="m 300.17,413.62 -0.32656,5.0531 -0.12031,0.0344 q -1.2719,-1.9078 -4.3312,-2.475 -0.9625,-0.18906 -1.8562,-0.18906 -0.87656,0 -1.5125,0.15469 -0.61875,0.15468 -1.0656,0.44687 -0.9453,0.61875 -0.9453,1.6156 0,1.3062 0.825,1.9594 1.0312,0.79063 3.4203,1.1172 2.3891,0.30937 3.8328,0.85937 1.4438,0.55 2.3719,1.3922 1.7531,1.5812 1.7531,4.4688 0,3.7812 -2.8531,5.8266 -2.4406,1.7531 -6.1531,1.7531 -2.9906,0 -5.9125,-1.1344 -0.9625,-0.37812 -1.6844,-0.87656 l 0.18905,-5.7406 0.0688,-0.0516 q 2.1312,3.6781 6.9953,3.6781 3.4547,0 4.5719,-1.6672 0.37813,-0.56719 0.37813,-1.2547 0,-0.70468 -0.22344,-1.1516 -0.22343,-0.46406 -0.73906,-0.79062 -0.99687,-0.65313 -3.3516,-0.87657 -2.35473,-0.22344 -3.85,-0.84218 -1.4953,-0.61876 -2.389,-1.5297 -1.6156,-1.65 -1.6156,-4.6062 0,-3.0594 2.1484,-4.95 2.1828,-1.925 5.8781,-1.925 3.7125,0 6.4969,1.7016 z"
       style="font-variant-ligatures:none"
       id="path26630" /><path
       d="m 316.57,426.37 q 0,-2.0109 0.6875,-3.7297 0.6875,-1.7188 1.9422,-3.0078 2.6812,-2.7328 7.0125,-2.7328 3.6609,0 5.8781,2.4234 2.1828,2.3375 2.1828,5.8781 0,1.3578 -0.20625,1.8562 -1.7188,0.48126 -6.9953,0.48126 h -6.05 q 0.44687,1.8391 2.0797,2.8703 1.6328,1.0141 4.2453,1.0141 2.7328,0 4.6922,-0.97969 0.51562,-0.25781 0.77344,-0.48125 -0.0343,0.72188 -0.0859,1.4781 l -0.18906,2.6812 q -1.3062,0.89375 -4.2281,1.2375 -0.85938,0.10312 -1.65,0.10312 -4.3656,0 -7.2188,-2.5438 -2.8703,-2.5609 -2.8703,-6.5484 z m 13.131,-2.1656 q -0.70468,-3.6953 -4.0219,-3.6953 -2.6125,0 -3.9703,2.2516 -0.4125,0.6875 -0.63595,1.5125 0.4125,0.0172 1.0141,0.0344 h 1.2719 q 0.63593,0.0172 1.2203,0.0172 h 0.9797 q 0.87655,0 1.7188,-0.0172 l 1.4094,-0.0516 q 0.56718,-0.0172 1.0141,-0.0516 z"
       style="font-variant-ligatures:none"
       id="path26632" /><path
       d="m 363.03,433.54 q -1.925,1.925 -6.0328,1.925 -3.9875,0 -6.5141,-2.4234 -2.5609,-2.4578 -2.5609,-6.5312 0,-4.1422 2.5266,-6.8063 2.6812,-2.8016 7.1672,-2.8016 3.1797,0 5.3281,1.3922 l -0.6875,4.4 -0.1203,-0.0172 q -0.825,-0.99688 -1.736,-1.3062 -1.4781,-0.51563 -2.9562,-0.51563 -1.4781,0 -2.3203,0.37813 -0.8422,0.37812 -1.4438,1.0484 -1.2031,1.375 -1.2031,3.6438 0,4.0219 2.7844,5.2594 0.96249,0.4125 2.0281,0.4125 1.0828,0 1.8734,-0.18906 0.80782,-0.18907 1.461,-0.51563 1.3922,-0.6875 1.8906,-1.5984 l 0.12031,0.0516 z"
       style="font-variant-ligatures:none"
       id="path26634" /><path
       d="m 388.41,433.64 q -2.2,1.8219 -4.7953,1.8219 -2.7844,0 -4.3656,-1.8734 -1.5125,-1.8219 -1.5125,-5.0016 v -6.8234 q 0,-3.4375 -0.1547,-3.9359 -0.1375,-0.51563 -0.20625,-0.65313 0.79063,0.0688 1.65,0.0688 h 1.4266 q 0.56718,0 1.4953,-0.0516 v 9.9516 q 0,3.5406 1.925,4.1078 0.58437,0.17188 1.2719,0.17188 2.0281,0 3.2656,-1.4781 v -12.702 h 4.2625 v 15.761 q 0,1.5125 0.1375,2.2 h -4.4 z"
       style="font-variant-ligatures:none"
       id="path26636" /><path
       d="m 413.2,433.28 q 0,1.4781 0.0687,1.925 h -4.2797 v -17.961 h 4.2109 v 1.3234 q 1.461,-1.6672 3.0594,-1.6672 1.6156,0 2.5438,0.39531 l -0.30938,4.6234 -0.0688,0.0516 q -0.60155,-1.0656 -2.4922,-1.0656 -0.72187,0 -1.4781,0.49844 -0.73907,0.48125 -1.2547,1.2891 z"
       style="font-variant-ligatures:none"
       id="path26638" /><path
       d="m 431.04,426.37 q 0,-2.0109 0.6875,-3.7297 0.6875,-1.7188 1.9422,-3.0078 2.6812,-2.7328 7.0125,-2.7328 3.6609,0 5.8781,2.4234 2.1828,2.3375 2.1828,5.8781 0,1.3578 -0.20625,1.8562 -1.7188,0.48126 -6.9953,0.48126 h -6.05 q 0.44687,1.8391 2.0797,2.8703 1.6328,1.0141 4.2453,1.0141 2.7328,0 4.6922,-0.97969 0.51562,-0.25781 0.77344,-0.48125 -0.0343,0.72188 -0.0859,1.4781 l -0.18906,2.6812 q -1.3062,0.89375 -4.2281,1.2375 -0.85938,0.10312 -1.65,0.10312 -4.3656,0 -7.2188,-2.5438 -2.8703,-2.5609 -2.8703,-6.5484 z m 13.131,-2.1656 q -0.70468,-3.6953 -4.0219,-3.6953 -2.6125,0 -3.9703,2.2516 -0.4125,0.6875 -0.63595,1.5125 0.4125,0.0172 1.0141,0.0344 h 1.2719 q 0.63593,0.0172 1.2203,0.0172 h 0.9797 q 0.87655,0 1.7188,-0.0172 l 1.4094,-0.0516 q 0.56718,-0.0172 1.0141,-0.0516 z"
       style="font-variant-ligatures:none"
       id="path26640" /><path
       d="m 473.49,441.19 1.1344,-0.91094 q 2.5609,-2.0797 4.2453,-6.1359 l 0.79062,-1.9078 -6.5828,-14.988 h 4.8125 l 4.125,10.381 3.8328,-10.381 h 4.95 q -0.89375,1.2375 -2.1828,4.6062 l -2.5781,6.3766 q -5.1734,12.169 -8.1125,14.506 z"
       style="font-variant-ligatures:none"
       id="path26642" /><path
       d="m 502.44,426.32 q 0,-1.8906 0.63595,-3.6094 0.65312,-1.7359 1.8562,-3.025 2.6297,-2.7844 6.8234,-2.7844 4.1766,0 6.6344,2.6297 2.3547,2.5094 2.3547,6.5141 0,4.0047 -2.4234,6.6344 -2.5609,2.7844 -6.789,2.7844 -4.3656,0 -6.8406,-2.7328 -2.2516,-2.4922 -2.2516,-6.4109 z m 4.1766,-0.10312 q 0,1.0828 0.36093,2.0969 0.36095,1.0141 1.0312,1.7359 1.4266,1.5641 3.7469,1.5641 2.1484,0 3.3859,-1.5297 1.2031,-1.4781 1.2031,-3.85 0,-2.4062 -1.2375,-3.8844 -1.3234,-1.5812 -3.6266,-1.5812 -2.3375,0 -3.6609,1.6844 -1.2031,1.5469 -1.2031,3.7641 z"
       style="font-variant-ligatures:none"
       id="path26644" /><path
       d="m 546.06,433.64 q -2.2,1.8219 -4.7953,1.8219 -2.7844,0 -4.3656,-1.8734 -1.5125,-1.8219 -1.5125,-5.0016 v -6.8234 q 0,-3.4375 -0.1547,-3.9359 -0.1375,-0.51563 -0.20625,-0.65313 0.79063,0.0688 1.65,0.0688 h 1.4266 q 0.56718,0 1.4953,-0.0516 v 9.9516 q 0,3.5406 1.925,4.1078 0.58437,0.17188 1.2719,0.17188 2.0281,0 3.2656,-1.4781 v -12.702 h 4.2625 v 15.761 q 0,1.5125 0.1375,2.2 h -4.4 z"
       style="font-variant-ligatures:none"
       id="path26646" /><path
       d="m 570.84,433.28 q 0,1.4781 0.0688,1.925 h -4.2797 v -17.961 h 4.2109 v 1.3234 q 1.461,-1.6672 3.0594,-1.6672 1.6156,0 2.5438,0.39531 l -0.30938,4.6234 -0.0687,0.0516 q -0.60155,-1.0656 -2.4922,-1.0656 -0.72187,0 -1.4781,0.49844 -0.73907,0.48125 -1.2547,1.2891 z"
       style="font-variant-ligatures:none"
       id="path26648" /><path
       d="m 607.28,435.46 q -4.8469,0 -7.3047,-1.7703 0.0343,-0.51562 0.10307,-1.1688 l 0.15468,-1.2375 q 0.1375,-1.2203 0.17188,-1.5125 0.0343,-0.30938 0.0516,-0.32656 0.0172,-0.0344 0.275,0.275 0.25781,0.29218 0.97968,0.72187 0.72188,0.42969 1.6672,0.75625 2.0453,0.70469 4.2625,0.70469 2.9734,0 2.9734,-1.9766 0,-0.63594 -0.56718,-0.94532 -1.0141,-0.51562 -2.9906,-0.77343 -1.9594,-0.275 -3.2141,-0.79063 -1.2547,-0.51562 -2.0453,-1.2375 -1.461,-1.3578 -1.461,-3.5578 0,-2.6812 2.0625,-4.2109 2.0453,-1.5125 5.6547,-1.5125 3.575,0 6.1016,2.0281 -0.1203,0.44687 -0.2578,0.85937 -0.39532,1.1344 -0.58438,1.6328 l -0.39532,1.0141 q -0.0343,0.1375 -0.0516,0.1375 -0.0343,0 -0.275,-0.36094 -1.0828,-1.2547 -3.3688,-1.65 -0.70469,-0.1375 -1.4438,-0.1375 -3.1281,0 -3.1281,1.8906 0,0.65313 0.65312,0.99688 1.2203,0.65312 3.3344,0.9625 2.1312,0.30938 3.2312,0.84219 1.1,0.51562 1.7703,1.2547 1.2375,1.3406 1.2375,3.5578 0,2.4234 -1.9422,3.9359 -2.0281,1.5984 -5.6547,1.5984 z"
       style="font-variant-ligatures:none"
       id="path26650" /><path
       d="m 634.37,434.84 v 5.0531 q 0,1.4781 0.0688,1.925 h -4.2797 v -24.578 h 4.2109 v 1.1172 q 2.0797,-1.4609 3.9875,-1.4609 1.9078,0 3.386,0.53281 1.4781,0.53282 2.5953,1.65 2.4578,2.4234 2.4578,6.9094 0,2.9734 -1.3922,5.3109 -1.1859,1.9766 -3.2828,3.1625 -1.8562,1.0484 -4.0219,1.0484 -2.1656,0 -3.7297,-0.67031 z m 0,-4.3312 q 1.3062,1.1 3.386,1.1 3.4031,0 4.4,-3.2828 0.34375,-1.1172 0.34375,-2.3891 0,-1.2891 -0.24063,-2.0453 -0.24062,-0.77344 -0.63594,-1.3234 -0.37813,-0.56719 -0.85938,-0.92813 -0.48125,-0.37812 -0.97968,-0.60156 -0.87657,-0.39531 -1.8047,-0.39531 -0.92813,0 -1.925,0.42968 -0.99688,0.42969 -1.6844,1.1516 z"
       style="font-variant-ligatures:none"
       id="path26652" /><path
       d="m 673.24,434.14 q -2.4406,1.3234 -4.4172,1.3234 -1.9766,0 -3.386,-0.36093 -1.4094,-0.37813 -2.389,-1.1 -1.9938,-1.4609 -1.9938,-4.2281 0,-2.475 2.4406,-4.125 2.6469,-1.7875 7.1844,-1.7875 l 0.6875,0.0172 q 0.20625,0.0172 0.46405,0.0344 0.25782,0 0.46407,0.0344 -0.1375,-2.75 -2.3719,-3.2141 -0.73907,-0.15469 -1.5812,-0.15469 -0.825,0 -1.6328,0.15469 -0.79063,0.1375 -1.5469,0.37813 -1.6672,0.53281 -2.389,1.2203 l -0.0516,-0.0344 -0.51563,-3.7984 q 3.0422,-1.5984 6.6516,-1.5984 5.6031,0 7.1672,4.0391 0.49844,1.2891 0.49844,2.9047 v 6.2219 q 0,1.9938 1.4094,2.7156 l -3.1109,2.8531 q -0.97969,-0.51562 -1.5812,-1.4953 z m -0.92813,-7.0984 q -0.46405,-0.0859 -0.9625,-0.0859 h -0.6875 q -3.7984,0 -4.8297,1.6844 -0.30937,0.49844 -0.30937,1.0484 0,0.55 0.18905,0.97969 0.20625,0.4125 0.67032,0.6875 0.89375,0.51562 2.6469,0.51562 1.7703,0 3.3,-0.84218 -0.0172,-0.18907 -0.0172,-0.39531 z"
       style="font-variant-ligatures:none"
       id="path26654" /><path
       d="m 706.91,433.54 q -1.925,1.925 -6.0328,1.925 -3.9875,0 -6.5141,-2.4234 -2.5609,-2.4578 -2.5609,-6.5312 0,-4.1422 2.5266,-6.8063 2.6812,-2.8016 7.1672,-2.8016 3.1797,0 5.3281,1.3922 l -0.6875,4.4 -0.1203,-0.0172 q -0.825,-0.99688 -1.736,-1.3062 -1.4781,-0.51563 -2.9562,-0.51563 -1.4781,0 -2.3203,0.37813 -0.8422,0.37812 -1.4438,1.0484 -1.2031,1.375 -1.2031,3.6438 0,4.0219 2.7844,5.2594 0.9625,0.4125 2.0281,0.4125 1.0828,0 1.8734,-0.18906 0.80782,-0.18907 1.461,-0.51563 1.3922,-0.6875 1.8906,-1.5984 l 0.12031,0.0516 z"
       style="font-variant-ligatures:none"
       id="path26656" /><path
       d="m 720.68,426.37 q 0,-2.0109 0.6875,-3.7297 0.6875,-1.7188 1.9422,-3.0078 2.6812,-2.7328 7.0125,-2.7328 3.6609,0 5.8781,2.4234 2.1828,2.3375 2.1828,5.8781 0,1.3578 -0.20625,1.8562 -1.7188,0.48126 -6.9953,0.48126 h -6.05 q 0.44687,1.8391 2.0797,2.8703 1.6328,1.0141 4.2453,1.0141 2.7328,0 4.6922,-0.97969 0.51562,-0.25781 0.77344,-0.48125 -0.0343,0.72188 -0.0859,1.4781 l -0.18905,2.6812 q -1.3062,0.89375 -4.2281,1.2375 -0.85937,0.10312 -1.65,0.10312 -4.3656,0 -7.2188,-2.5438 -2.8703,-2.5609 -2.8703,-6.5484 z m 13.131,-2.1656 q -0.70468,-3.6953 -4.0219,-3.6953 -2.6125,0 -3.9703,2.2516 -0.4125,0.6875 -0.63595,1.5125 0.4125,0.0172 1.0141,0.0344 h 1.2719 q 0.63593,0.0172 1.2203,0.0172 h 0.9797 q 0.87655,0 1.7188,-0.0172 l 1.4094,-0.0516 q 0.56718,-0.0172 1.0141,-0.0516 z"
       style="font-variant-ligatures:none"
       id="path26658" /><path
       d="m 261.92,387.44 -27.09,-52.29 c -2.79,-5.4 -8.01,-9.27 -14.04,-9.81 -7.2,-0.63 -13.77,3.06 -17.01,9.36 l -27.36,52.74 c -0.63,1.26 0.27,2.79 1.71,2.79 h 10.08 c 0.72,0 1.35,-0.36 1.71,-0.99 l 25.11,-48.69 c 1.17,-2.25 3.33,-2.52 4.14,-2.52 0.81001,0 2.97,0.27 4.14,2.52 l 25.11,48.69 c 0.36,0.63 0.98999,0.99 1.71,0.99 h 10.08 c 1.44,0 2.34,-1.53 1.71,-2.79 z"
       style="font-variant-ligatures:normal"
       id="path26661" /><path
       d="m 347.95,327.23 h -8.91 c -1.08,0 -1.89,0.9 -1.89,1.89 v 36.9 c 0,6.39 -5.13,11.52 -11.52,11.52 h -32.31 c -6.39,0 -11.52,-5.13 -11.52,-11.52 v -36.9 c 0,-1.08 -0.81,-1.89 -1.89,-1.89 H 271 c -0.99,0 -1.89,0.81 -1.89,1.89 v 36.9 c 0,13.32 10.89,24.21 24.21,24.21 h 32.31 c 13.41,0 24.21,-10.8 24.21,-24.21 v -36.9 c 0,-1.08 -0.81,-1.89 -1.89,-1.89 z"
       style="font-variant-ligatures:normal"
       id="path26663" /><path
       d="m 415.63,327.23 h -48.69 c -0.99,0 -1.89,0.9 -1.89,1.89 v 8.91 c 0,1.08 0.9,1.89 1.89,1.89 h 48.69 c 6.84,0 12.33,5.58 12.33,12.42 v 12.78 c 0,6.84 -5.49,12.42 -12.33,12.42 h -37.89 v -22.95 c 0,-1.08 -0.81,-1.89 -1.89,-1.89 h -8.91 c -0.99,0 -1.89,0.81 -1.89,1.89 v 33.75 c 0,0.99 0.9,1.89 1.89,1.89 h 48.69 c 13.86,0 25.11,-11.25 25.11,-25.11 v -12.78 c 0,-13.86 -11.25,-25.11 -25.11,-25.11 z"
       style="font-variant-ligatures:normal"
       id="path26665" /><path
       d="m 466.25,327.23 h -8.91 c -0.99,0 -1.89,0.81 -1.89,1.89 v 59.22 c 0,0.99 0.9,1.89 1.89,1.89 h 8.91 c 1.08,0 1.89,-0.9 1.89,-1.89 v -59.22 c 0,-1.08 -0.81,-1.89 -1.89,-1.89 z"
       style="font-variant-ligatures:normal"
       id="path26667" /><path
       d="m 554.14,327.23 h -72.45 c -0.99,0 -1.89,0.81 -1.89,1.89 v 8.91 c 0,1.08 0.9,1.89 1.89,1.89 h 29.88 v 48.42 c 0,0.99 0.81,1.89 1.89,1.89 h 8.91 c 1.08,0 1.89,-0.9 1.89,-1.89 v -48.42 h 29.88 c 0.99,0 1.89,-0.81 1.89,-1.89 v -8.91 c 0,-1.08 -0.9,-1.89 -1.89,-1.89 z"
       style="font-variant-ligatures:normal"
       id="path26669" /><path
       d="m 654.26,326.15 c -4.5,-1.08 -9.09,0.99 -11.25,5.13 l -23.58,45.63 c -1.17,2.25 -3.33,2.52 -4.14,2.52 -0.81,0 -2.97,-0.27 -4.14,-2.52 l -23.4,-45.27 c -2.34,-4.5 -7.2,-6.66 -12.15,-5.49 -4.86,1.17 -8.19,5.4 -8.19,10.44 v 53.64 H 580.1 V 344.6 l 19.8,38.16 c 2.97,5.76 8.91,9.36 15.39,9.36 6.48,0 12.42,-3.6 15.39,-9.36 l 18.54,-35.73 v 43.2 h 12.69 v -54.36 c 0,-4.59 -3.15,-8.64 -7.65,-9.72 z"
       style="font-variant-ligatures:normal"
       id="path26671" /><path
       d="m 732.36,327.23 h -30.51 c -13.86,0 -25.11,11.25 -25.11,25.11 v 12.78 c 0,13.86 11.25,25.11 25.11,25.11 h 30.51 c 13.86,0 25.11,-11.25 25.11,-25.11 v -12.78 c 0,-13.86 -11.25,-25.11 -25.11,-25.11 z m 12.42,25.11 v 12.78 c 0,6.84 -5.58,12.42 -12.42,12.42 h -30.51 c -6.84,0 -12.42,-5.58 -12.42,-12.42 v -12.78 c 0,-6.84 5.58,-12.42 12.42,-12.42 h 30.51 c 6.84,0 12.42,5.58 12.42,12.42 z"
       style="font-variant-ligatures:normal"
       id="path26673" /><path
       d="m 769.85,346.13 c 0,10.44 8.46,18.99 18.9,18.99 h 40.14 c 3.42,0 6.21,2.79 6.21,6.21 0,3.42 -2.79,6.21 -6.21,6.21 H 773 c -0.99,0 -1.89,0.81 -1.89,1.89 v 8.91 c 0,0.99 0.9,1.89 1.89,1.89 h 55.89 c 10.44,0 18.9,-8.46 18.9,-18.9 0,-10.44 -8.46,-18.99 -18.9,-18.99 h -40.14 c -3.42,0 -6.21,-2.79 -6.21,-6.21 0,-3.42 2.79,-6.21 6.21,-6.21 h 55.98 c 0.99,0 1.89,-0.81 1.89,-1.89 v -8.91 c 0,-1.08 -0.9,-1.89 -1.89,-1.89 h -55.98 c -10.44,0 -18.9,8.46 -18.9,18.9 z"
       style="font-variant-ligatures:normal"
       id="path26675" /></g></svg>