<?xml version="1.0" encoding="UTF-8" standalone="no"?>
<svg
   xmlns:dc="http://purl.org/dc/elements/1.1/"
   xmlns:cc="http://creativecommons.org/ns#"
   xmlns:rdf="http://www.w3.org/1999/02/22-rdf-syntax-ns#"
   xmlns:svg="http://www.w3.org/2000/svg"
   xmlns="http://www.w3.org/2000/svg"
   id="svg6"
   xml:space="preserve"
   viewBox="0 0 1024 768"
   y="0px"
   x="0px"
   version="1.1"><metadata
     id="metadata12"><rdf:RDF><cc:Work
         rdf:about=""><dc:format>image/svg+xml</dc:format><dc:type
           rdf:resource="http://purl.org/dc/dcmitype/StillImage" /></cc:Work></rdf:RDF></metadata><defs
     id="defs10" /><rect
     id="rect2"
     height="768"
     width="1024"
     fill="#ffffff" /><path
     id="path4"
     d="m219.45 325.27c-6.67-0.09-12.64 3.52-15.67 9.43l-27.36 52.74c-0.63 1.26 0.27 2.79 1.71 2.79h10.08c0.72 0 1.35-0.36 1.71-0.99l25.11-48.69c1.17-2.25 3.33-2.52 4.14-2.52s2.97 0.27 4.14 2.52l25.11 48.69c0.36 0.63 0.99 0.99 1.71 0.99h10.08c1.44 0 2.34-1.53 1.71-2.79l-27.09-52.29c-2.79-5.4-8.01-9.27-14.04-9.81-0.45-0.04-0.9-0.07-1.34-0.07zm358.91 0.56c-0.91-0.01-1.83 0.1-2.76 0.32-4.86 1.17-8.19 5.4-8.19 10.44v53.64h12.69v-45.63l19.8 38.16c2.97 5.76 8.91 9.36 15.39 9.36s12.42-3.6 15.39-9.36l18.54-35.73v43.2h12.69v-54.36c0-4.59-3.15-8.64-7.65-9.72s-9.09 0.99-11.25 5.13l-23.58 45.63c-1.17 2.25-3.33 2.52-4.14 2.52s-2.97-0.27-4.14-2.52l-23.4-45.27c-1.9-3.66-5.47-5.77-9.39-5.81zm-307.36 1.4c-0.99 0-1.89 0.81-1.89 1.89v36.9c0 13.32 10.89 24.21 24.21 24.21h32.31c13.41 0 24.21-10.8 24.21-24.21v-36.9c0-1.08-0.81-1.89-1.89-1.89h-8.91c-1.08 0-1.89 0.9-1.89 1.89v36.9c0 6.39-5.13 11.52-11.52 11.52h-32.31c-6.39 0-11.52-5.13-11.52-11.52v-36.9c0-1.08-0.81-1.89-1.89-1.89h-8.91zm95.94 0c-0.99 0-1.89 0.9-1.89 1.89v8.91c0 1.08 0.9 1.89 1.89 1.89h48.69c6.84 0 12.33 5.58 12.33 12.42v12.78c0 6.84-5.49 12.42-12.33 12.42h-37.89v-22.95c0-1.08-0.81-1.89-1.89-1.89h-8.91c-0.99 0-1.89 0.81-1.89 1.89v33.75c0 0.99 0.9 1.89 1.89 1.89h48.69c13.86 0 25.11-11.25 25.11-25.11v-12.78c0-13.86-11.25-25.11-25.11-25.11h-48.69zm90.4 0c-0.99 0-1.89 0.81-1.89 1.89v59.22c0 0.99 0.9 1.89 1.89 1.89h8.91c1.08 0 1.89-0.9 1.89-1.89v-59.22c0-1.08-0.81-1.89-1.89-1.89h-8.91zm24.35 0c-0.99 0-1.89 0.81-1.89 1.89v8.91c0 1.08 0.9 1.89 1.89 1.89h29.88v48.42c0 0.99 0.81 1.89 1.89 1.89h8.91c1.08 0 1.89-0.9 1.89-1.89v-48.42h29.88c0.99 0 1.89-0.81 1.89-1.89v-8.91c0-1.08-0.9-1.89-1.89-1.89h-72.45zm220.16 0c-13.86 0-25.11 11.25-25.11 25.11v12.78c0 13.86 11.25 25.11 25.11 25.11h30.51c13.86 0 25.11-11.25 25.11-25.11v-12.78c0-13.86-11.25-25.11-25.11-25.11h-30.51zm86.9 0c-10.44 0-18.9 8.46-18.9 18.9s8.46 18.99 18.9 18.99h40.14c3.42 0 6.21 2.79 6.21 6.21s-2.79 6.21-6.21 6.21h-55.89c-0.99 0-1.89 0.81-1.89 1.89v8.91c0 0.99 0.9 1.89 1.89 1.89h55.89c10.44 0 18.9-8.46 18.9-18.9s-8.46-18.99-18.9-18.99h-40.14c-3.42 0-6.21-2.79-6.21-6.21s2.79-6.21 6.21-6.21h55.98c0.99 0 1.89-0.81 1.89-1.89v-8.91c0-1.08-0.9-1.89-1.89-1.89h-55.98zm-86.9 12.69h30.51c6.84 0 12.42 5.58 12.42 12.42v12.78c0 6.84-5.58 12.42-12.42 12.42h-30.51c-6.84 0-12.42-5.58-12.42-12.42v-12.78c0-6.84 5.58-12.42 12.42-12.42zm-408.17 72c-2.47 0-4.43 0.64-5.88 1.92-1.44 1.26-2.15 2.91-2.15 4.95 0 1.97 0.54 3.51 1.62 4.61 0.59 0.6 1.39 1.12 2.38 1.53 1 0.41 2.28 0.69 3.85 0.84s2.69 0.44 3.36 0.88c0.34 0.21 0.58 0.48 0.73 0.79 0.15 0.29 0.23 0.68 0.23 1.15 0 0.46-0.13 0.87-0.38 1.25-0.75 1.11-2.27 1.67-4.57 1.67-3.25 0-5.58-1.23-7-3.68l-0.07 0.05-0.18 5.74c0.48 0.34 1.04 0.63 1.68 0.88 1.95 0.76 3.92 1.13 5.91 1.13 2.48 0 4.53-0.58 6.16-1.75 1.9-1.36 2.85-3.3 2.85-5.83 0-1.92-0.59-3.41-1.76-4.46-0.61-0.57-1.4-1.03-2.37-1.39-0.96-0.37-2.24-0.66-3.83-0.86-1.59-0.22-2.73-0.59-3.42-1.12-0.55-0.44-0.82-1.09-0.82-1.96 0-0.67 0.31-1.2 0.94-1.62 0.3-0.19 0.65-0.34 1.07-0.44 0.42-0.11 0.92-0.16 1.51-0.16s1.21 0.06 1.85 0.19c2.04 0.38 3.49 1.2 4.34 2.48l0.12-0.04 0.32-5.05c-1.85-1.14-4.02-1.7-6.49-1.7zm32.53 4.98c-2.89 0-5.22 0.91-7.01 2.73-0.84 0.86-1.48 1.86-1.94 3.01s-0.69 2.39-0.69 3.73c0 2.66 0.96 4.84 2.87 6.55 1.9 1.7 4.31 2.54 7.22 2.54 0.53 0 1.08-0.03 1.65-0.1 1.95-0.23 3.36-0.64 4.23-1.24l0.19-2.68c0.03-0.5 0.06-1 0.08-1.48-0.17 0.15-0.43 0.31-0.77 0.48-1.31 0.66-2.87 0.98-4.69 0.98-1.75 0-3.16-0.33-4.25-1.01-1.09-0.69-1.78-1.64-2.08-2.87h6.05c3.52 0 5.85-0.16 7-0.48 0.13-0.33 0.2-0.95 0.2-1.86 0-2.36-0.72-4.32-2.18-5.88-1.48-1.61-3.44-2.42-5.88-2.42zm31.4 0c-2.99 0-5.38 0.93-7.16 2.8-1.69 1.78-2.53 4.05-2.53 6.81 0 2.71 0.85 4.89 2.56 6.53 1.68 1.61 3.86 2.42 6.51 2.42 2.74 0 4.75-0.64 6.04-1.92l-0.4-4.2-0.12-0.05c-0.33 0.61-0.96 1.14-1.89 1.6-0.43 0.22-0.92 0.39-1.46 0.52-0.53 0.12-1.15 0.19-1.87 0.19-0.71 0-1.39-0.14-2.03-0.42-1.86-0.82-2.79-2.57-2.79-5.26 0-1.51 0.41-2.72 1.21-3.64 0.4-0.45 0.88-0.8 1.44-1.05s1.34-0.38 2.32-0.38c0.99 0 1.97 0.18 2.96 0.52 0.61 0.21 1.18 0.64 1.73 1.31l0.12 0.01 0.69-4.4c-1.43-0.93-3.21-1.39-5.33-1.39zm58.65 0c-1.07 0-2.09 0.56-3.06 1.67v-1.33h-4.21v17.97h4.28c-0.05-0.3-0.07-0.95-0.07-1.93v-10.59c0.34-0.54 0.76-0.96 1.25-1.29 0.51-0.33 1-0.49 1.48-0.49 1.26 0 2.09 0.35 2.49 1.06l0.07-0.05 0.31-4.63c-0.62-0.26-1.47-0.39-2.54-0.39zm24.42 0c-2.89 0-5.22 0.91-7.01 2.73-0.84 0.86-1.49 1.86-1.94 3.01-0.46 1.15-0.69 2.39-0.69 3.73 0 2.66 0.95 4.84 2.87 6.55 1.9 1.7 4.31 2.54 7.22 2.54 0.52 0 1.07-0.03 1.65-0.1 1.95-0.23 3.36-0.64 4.23-1.24l0.19-2.68c0.03-0.5 0.06-1 0.08-1.48-0.17 0.15-0.43 0.31-0.77 0.48-1.31 0.66-2.87 0.98-4.7 0.98-1.74 0-3.15-0.33-4.24-1.01-1.09-0.69-1.78-1.64-2.08-2.87h6.05c3.52 0 5.85-0.16 7-0.48 0.13-0.33 0.2-0.95 0.2-1.86 0-2.36-0.73-4.32-2.18-5.88-1.48-1.61-3.44-2.42-5.88-2.42zm71.07 0c-2.8 0-5.07 0.93-6.82 2.79-0.8 0.85-1.42 1.86-1.86 3.02-0.42 1.14-0.63 2.35-0.63 3.61 0 2.61 0.75 4.75 2.25 6.41 1.65 1.82 3.93 2.73 6.84 2.73 2.82 0 5.08-0.93 6.79-2.78 1.61-1.76 2.42-3.97 2.42-6.64 0-2.66-0.79-4.84-2.36-6.51-1.63-1.75-3.85-2.63-6.63-2.63zm62.15 0c-1.07 0-2.08 0.56-3.06 1.67v-1.33h-4.21v17.97h4.28c-0.05-0.3-0.07-0.95-0.07-1.93v-10.59c0.35-0.54 0.76-0.96 1.26-1.29s0.99-0.49 1.47-0.49c1.26 0 2.1 0.35 2.5 1.06l0.06-0.05 0.32-4.63c-0.62-0.26-1.47-0.39-2.55-0.39zm34.15 0c-2.4 0-4.29 0.5-5.65 1.51-1.38 1.02-2.06 2.43-2.06 4.21 0 1.47 0.48 2.66 1.46 3.56 0.52 0.48 1.21 0.9 2.04 1.24 0.84 0.34 1.91 0.61 3.21 0.79 1.32 0.17 2.32 0.43 3 0.77 0.37 0.21 0.56 0.52 0.56 0.95 0 1.32-0.99 1.97-2.97 1.97-1.48 0-2.9-0.23-4.26-0.7-0.63-0.22-1.19-0.47-1.67-0.76-0.48-0.28-0.81-0.52-0.98-0.72s-0.26-0.3-0.27-0.27c-0.02 0.01-0.03 0.12-0.06 0.32-0.02 0.2-0.08 0.7-0.17 1.52l-0.15 1.23c-0.05 0.44-0.08 0.83-0.11 1.17 1.64 1.18 4.08 1.77 7.31 1.77 2.42 0 4.3-0.53 5.65-1.59 1.3-1.01 1.95-2.33 1.95-3.94 0-1.48-0.42-2.67-1.24-3.56-0.45-0.49-1.04-0.91-1.77-1.25-0.74-0.36-1.81-0.64-3.23-0.85-1.41-0.2-2.52-0.52-3.34-0.96-0.43-0.23-0.65-0.56-0.65-1 0-1.26 1.04-1.89 3.13-1.89 0.49 0 0.97 0.05 1.44 0.14 1.52 0.26 2.65 0.81 3.37 1.65 0.16 0.24 0.25 0.36 0.28 0.36 0.01 0 0.02-0.04 0.05-0.13l0.39-1.02c0.13-0.33 0.32-0.88 0.59-1.63 0.09-0.28 0.17-0.56 0.25-0.86-1.68-1.35-3.71-2.03-6.1-2.03zm30.3 0c-1.27 0-2.6 0.49-3.98 1.46v-1.12h-4.21v24.58h4.28c-0.05-0.3-0.07-0.94-0.07-1.92v-5.06c1.04 0.45 2.28 0.67 3.73 0.67 1.44 0 2.78-0.34 4.02-1.04 1.4-0.79 2.49-1.85 3.28-3.17 0.93-1.56 1.39-3.33 1.39-5.31 0-2.99-0.82-5.29-2.45-6.91-0.75-0.74-1.61-1.29-2.6-1.65-0.99-0.35-2.11-0.53-3.39-0.53zm30.51 0c-2.4 0-4.62 0.53-6.65 1.6l0.52 3.8 0.05 0.03c0.48-0.46 1.27-0.86 2.39-1.22 0.5-0.16 1.02-0.28 1.54-0.38 0.54-0.1 1.09-0.15 1.64-0.15 0.56 0 1.09 0.05 1.58 0.15 1.49 0.31 2.28 1.38 2.37 3.22-0.14-0.03-0.29-0.04-0.46-0.04-0.18-0.01-0.33-0.02-0.47-0.03l-0.69-0.02c-3.02 0-5.42 0.6-7.18 1.79-1.63 1.1-2.44 2.47-2.44 4.12 0 1.85 0.66 3.26 1.99 4.23 0.66 0.48 1.45 0.85 2.39 1.1 0.94 0.24 2.07 0.36 3.39 0.36s2.79-0.44 4.41-1.32c0.41 0.65 0.93 1.15 1.59 1.49l3.11-2.85c-0.94-0.48-1.41-1.38-1.41-2.71v-6.23c0-1.07-0.17-2.04-0.5-2.9-1.04-2.69-3.43-4.04-7.17-4.04zm32.64 0c-2.99 0-5.38 0.93-7.17 2.8-1.68 1.78-2.52 4.05-2.52 6.81 0 2.71 0.85 4.89 2.56 6.53 1.68 1.61 3.85 2.42 6.51 2.42 2.74 0 4.75-0.64 6.03-1.92l-0.39-4.2-0.12-0.05c-0.33 0.61-0.96 1.14-1.89 1.6-0.44 0.22-0.92 0.39-1.46 0.52-0.53 0.12-1.15 0.19-1.88 0.19-0.71 0-1.38-0.14-2.02-0.42-1.86-0.82-2.79-2.57-2.79-5.26 0-1.51 0.4-2.72 1.2-3.64 0.41-0.45 0.89-0.8 1.45-1.05s1.33-0.38 2.32-0.38c0.98 0 1.97 0.18 2.96 0.52 0.6 0.21 1.18 0.64 1.73 1.31l0.12 0.01 0.69-4.4c-1.43-0.93-3.21-1.39-5.33-1.39zm28.82 0c-2.88 0-5.22 0.91-7.01 2.73-0.83 0.86-1.48 1.86-1.94 3.01s-0.69 2.39-0.69 3.73c0 2.66 0.96 4.84 2.87 6.55 1.9 1.7 4.31 2.54 7.22 2.54 0.53 0 1.08-0.03 1.65-0.1 1.95-0.23 3.36-0.64 4.23-1.24l0.19-2.68c0.03-0.5 0.06-1 0.08-1.48-0.17 0.15-0.43 0.31-0.77 0.48-1.31 0.66-2.87 0.98-4.69 0.98-1.74 0-3.16-0.33-4.25-1.01-1.09-0.69-1.78-1.64-2.08-2.87h6.05c3.52 0 5.85-0.16 7-0.48 0.14-0.33 0.2-0.95 0.2-1.86 0-2.36-0.72-4.32-2.18-5.88-1.47-1.61-3.44-2.42-5.88-2.42zm-352.94 0.28c0.04 0.09 0.11 0.3 0.21 0.65 0.1 0.33 0.15 1.64 0.15 3.93v6.83c0 2.12 0.5 3.79 1.51 5 1.06 1.25 2.51 1.87 4.37 1.87 1.73 0 3.33-0.6 4.79-1.82v1.57h4.4c-0.09-0.46-0.13-1.2-0.13-2.2v-15.77h-4.27v12.71c-0.82 0.98-1.91 1.47-3.26 1.47-0.46 0-0.89-0.05-1.27-0.17-1.29-0.38-1.93-1.75-1.93-4.11v-9.95c-0.62 0.04-1.12 0.05-1.49 0.05h-1.43c-0.57 0-1.12-0.02-1.65-0.06zm157.64 0c0.05 0.09 0.12 0.3 0.21 0.65 0.1 0.33 0.15 1.64 0.15 3.93v6.83c0 2.12 0.51 3.79 1.52 5 1.05 1.25 2.51 1.87 4.36 1.87 1.73 0 3.33-0.6 4.8-1.82v1.57h4.4c-0.09-0.46-0.14-1.2-0.14-2.2v-15.77h-4.26v12.71c-0.83 0.98-1.92 1.47-3.27 1.47-0.46 0-0.88-0.05-1.27-0.17-1.28-0.38-1.93-1.75-1.93-4.11v-9.95c-0.61 0.04-1.11 0.05-1.49 0.05h-1.43c-0.57 0-1.12-0.02-1.65-0.06zm-61.94 0.06l6.58 14.99-0.79 1.91c-1.12 2.7-2.54 4.75-4.25 6.14l-1.13 0.91 4.44 1.54c1.96-1.56 4.66-6.39 8.11-14.5l2.58-6.38c0.86-2.25 1.58-3.78 2.18-4.61h-4.95l-3.83 10.38-4.13-10.38h-4.81zm-147.4 3.27c2.21 0 3.55 1.23 4.02 3.7-0.3 0.02-0.63 0.03-1.01 0.05l-1.41 0.05c-0.56 0.01-1.14 0.02-1.72 0.02h-0.98c-0.39 0-0.8-0.01-1.22-0.02h-1.27c-0.41-0.01-0.74-0.03-1.02-0.04 0.15-0.55 0.36-1.05 0.64-1.51 0.9-1.5 2.23-2.25 3.97-2.25zm114.47 0c2.21 0 3.55 1.23 4.02 3.7-0.3 0.02-0.64 0.03-1.01 0.05l-1.41 0.05c-0.57 0.01-1.14 0.02-1.72 0.02h-0.98c-0.39 0-0.8-0.01-1.22-0.02h-1.28c-0.4-0.01-0.73-0.03-1.01-0.04 0.15-0.55 0.36-1.05 0.64-1.51 0.9-1.5 2.23-2.25 3.97-2.25zm289.64 0c2.21 0 3.55 1.23 4.02 3.7-0.3 0.02-0.63 0.03-1.01 0.05l-1.41 0.05c-0.56 0.01-1.13 0.02-1.72 0.02h-0.98c-0.39 0-0.8-0.01-1.22-0.02h-1.27c-0.4-0.01-0.74-0.03-1.01-0.04 0.14-0.55 0.36-1.05 0.63-1.51 0.91-1.5 2.23-2.25 3.97-2.25zm-91.81 0.14c0.62 0 1.22 0.13 1.8 0.39 0.33 0.15 0.66 0.35 0.98 0.6s0.61 0.55 0.86 0.93c0.26 0.37 0.48 0.81 0.64 1.33 0.16 0.5 0.24 1.18 0.24 2.04 0 0.85-0.12 1.65-0.35 2.39-0.66 2.19-2.13 3.28-4.4 3.28-1.38 0-2.51-0.36-3.38-1.1v-8.28c0.46-0.48 1.02-0.87 1.68-1.15 0.67-0.29 1.31-0.43 1.93-0.43zm-126.5 0.12c1.53 0 2.74 0.53 3.62 1.58 0.83 0.99 1.24 2.28 1.24 3.88 0 1.58-0.4 2.87-1.2 3.85-0.83 1.02-1.96 1.53-3.39 1.53-1.55 0-2.8-0.52-3.75-1.56-0.44-0.48-0.79-1.06-1.03-1.74-0.24-0.67-0.36-1.37-0.36-2.09 0-1.48 0.4-2.74 1.2-3.77 0.89-1.12 2.11-1.68 3.67-1.68zm159.19 6.19h0.68c0.34 0 0.66 0.02 0.97 0.08v3.59c0 0.14 0 0.27 0.01 0.4-1.02 0.56-2.12 0.84-3.3 0.84-1.17 0-2.05-0.17-2.64-0.51-0.31-0.19-0.54-0.42-0.67-0.69-0.13-0.29-0.19-0.62-0.19-0.98 0-0.37 0.1-0.72 0.31-1.05 0.68-1.12 2.29-1.68 4.83-1.68z"
     fill="#000000" /></svg>