<?xml version="1.0" encoding="UTF-8" standalone="no"?>
<svg
   xmlns:dc="http://purl.org/dc/elements/1.1/"
   xmlns:cc="http://creativecommons.org/ns#"
   xmlns:rdf="http://www.w3.org/1999/02/22-rdf-syntax-ns#"
   xmlns:svg="http://www.w3.org/2000/svg"
   xmlns="http://www.w3.org/2000/svg"
   id="svg11"
   xml:space="preserve"
   enable-background="new 0 0 200 200"
   viewBox="0 0 200 200"
   y="0px"
   x="0px"
   version="1.1"><metadata
     id="metadata15"><rdf:RDF><cc:Work
         rdf:about=""><dc:format>image/svg+xml</dc:format><dc:type
           rdf:resource="http://purl.org/dc/dcmitype/StillImage" /></cc:Work></rdf:RDF></metadata><defs
     id="defs26626" /><linearGradient
     spreadMethod="pad"
     y2="30%"
     x2="-10%"
     y1="120%"
     x1="30%"
     id="3d_gradient2-logo-ae7b55ce-e13c-409a-96d2-5d98e520fe3d"><stop
       id="stop26603"
       stop-opacity="1"
       stop-color="#ffffff"
       offset="0%" /><stop
       id="stop26605"
       stop-opacity="1"
       stop-color="#000000"
       offset="100%" /></linearGradient><linearGradient
     gradientTransform="rotate(-30)"
     spreadMethod="pad"
     y2="30%"
     x2="-10%"
     y1="120%"
     x1="30%"
     id="3d_gradient3-logo-ae7b55ce-e13c-409a-96d2-5d98e520fe3d"><stop
       id="stop26608"
       stop-opacity="1"
       stop-color="#ffffff"
       offset="0%" /><stop
       id="stop26610"
       stop-opacity="1"
       stop-color="#cccccc"
       offset="50%" /><stop
       id="stop26612"
       stop-opacity="1"
       stop-color="#000000"
       offset="100%" /></linearGradient><path
     stroke-miterlimit="2"
     d="M 159.71478,141.47181 121.87447,68.431213 C 117.9773,60.888295 110.68581,55.482537 102.26288,54.728245 92.205659,53.848238 83.028441,59.002566 78.50269,67.802637 L 40.285238,141.47181 c -0.880007,1.76001 0.377146,3.89717 2.38859,3.89717 h 14.080115 c 1.005722,0 1.885729,-0.50286 2.38859,-1.38287 l 35.07457,-68.011978 c 1.634299,-3.142883 4.651467,-3.520029 5.782907,-3.520029 1.13144,0 4.1486,0.377146 5.7829,3.520029 l 35.07457,68.011978 c 0.50286,0.88001 1.38287,1.38287 2.38859,1.38287 h 14.08012 c 2.01144,0 3.26859,-2.13716 2.38859,-3.89717 z"
     style="font-style:normal;font-weight:normal;font-size:72px;line-height:1;font-family:'Brandmark Sans 25';font-variant-ligatures:normal;text-align:center;text-anchor:middle;fill:#04d9ff;stroke:#04d9ff;stroke-width:0;stroke-linejoin:miter;stroke-miterlimit:2"
     id="path26661" /></svg>