<?xml version="1.0" encoding="UTF-8" standalone="no"?>
<svg
   xmlns:dc="http://purl.org/dc/elements/1.1/"
   xmlns:cc="http://creativecommons.org/ns#"
   xmlns:rdf="http://www.w3.org/1999/02/22-rdf-syntax-ns#"
   xmlns:svg="http://www.w3.org/2000/svg"
   xmlns="http://www.w3.org/2000/svg"
   id="svg6"
   xml:space="preserve"
   enable-background="new 0 0 200 200"
   viewBox="0 0 200 200"
   y="0px"
   x="0px"
   version="1.1"><metadata
     id="metadata12"><rdf:RDF><cc:Work
         rdf:about=""><dc:format>image/svg+xml</dc:format><dc:type
           rdf:resource="http://purl.org/dc/dcmitype/StillImage" /></cc:Work></rdf:RDF></metadata><defs
     id="defs10" /><rect
     id="rect2"
     fill="#ffffff"
     height="200"
     width="200" /><path
     id="path4"
     d="m100.39 54.633c-9.313-0.127-17.645 4.92-21.888 13.17l-38.217 73.667c-0.88001 1.76 0.37722 3.8965 2.3887 3.8965h14.08c1.0057 0 1.8858-0.50281 2.3887-1.3828l35.074-68.012c1.6343-3.1429 4.6518-3.5215 5.7832-3.5215 1.1315 0 4.1489 0.3786 5.7832 3.5215l35.074 68.012c0.50286 0.88001 1.383 1.3828 2.3887 1.3828h14.08c2.0114 0 3.2687-2.1365 2.3887-3.8965l-37.83-73.038c-3.8972-7.5429-11.188-12.949-19.611-13.703-0.62858-0.05504-1.2542-0.0873-1.875-0.09568z"
     fill="#000000" /></svg>